<svg width="228" height="220" viewBox="0 0 228 220" fill="none" xmlns="http://www.w3.org/2000/svg">
<rect width="227.5" height="220" rx="110" fill="#866A4D"/>
<g clip-path="url(#clip0_105_79)">
<mask id="path-2-inside-1_105_79" fill="white">
<path d="M119.432 21.6586C103.712 25.561 97.462 27.5122 89.697 31.6098C79.6591 36.683 76.25 37.8125 74.375 39.6875C72.5 41.5625 71.1889 41.1684 70.5681 40.9756C69.9474 40.7828 71.5625 36.7636 71.5625 35.9375C71.5625 35.1115 71.5625 33.125 71.5625 33.125C71.5625 33.125 71.5625 32.1875 68.75 36.875C65.9375 41.5625 65.4545 40.1951 65.6439 47.6098C66.0227 52.4878 65.0757 60.4879 63.75 65.3659C60.9091 75.7074 62.0454 90.3415 67.3484 108.293C72.0834 124.488 72.0834 136.781 67.3484 149.659C65.2652 155.122 63.9393 160 64.3182 160.39C64.5075 160.781 67.1591 156.683 69.8106 151.61C76.8182 138.342 80.7954 121.561 80.7954 104.39C80.9848 88.7805 82.5 85.0732 88.9393 84.683C92.5379 84.4879 92.3484 84.2927 88.1818 82.9269L83.447 81.3658L88.1818 81.1708C93.6743 80.9757 100.492 85.2683 103.333 90.7317C104.659 93.2684 104.28 101.659 102.197 118.634C99.7348 138.537 99.7348 144.39 101.629 151.415C102.955 156.098 104.091 161.561 104.28 163.512C104.47 165.268 106.553 169.366 109.205 172.293L113.561 177.561L108.258 172.293C105.227 169.366 102.576 165.073 102.197 162.537C102.007 160 101.629 157.073 101.629 156.098C101.439 154.927 100.682 155.512 99.5454 157.073C97.2727 160.976 104.28 173.659 112.803 180.488C122.273 188.098 129.28 191.414 144.811 195.902L158.257 199.805V194.537C158.447 191.61 159.962 185.757 162.045 181.463C165.834 173.268 166.97 158.049 164.129 153.366C162.993 151.415 163.75 148.878 166.212 145.171C168.484 142.049 169.811 138.146 169.053 135.805C168.484 133.073 169.053 131.707 170.757 131.707C175.682 131.707 175.493 126.829 170.757 117.854C165.075 107.903 164.697 103.805 168.675 100.488C171.705 97.7561 171.325 88.3902 167.727 73.3659C166.212 67.9024 166.78 65.7562 170.757 60.4879C180.607 47.0245 177.955 32 164.507 25.1708C157.5 21.8537 128.523 19.5122 119.432 21.6586ZM154.848 26.7317C166.402 30.2439 171.516 36.2927 171.325 46.2439L170.947 54.6342L169.811 46.4391C168.107 36.0976 165.643 33.1708 155.038 29.4634C142.159 24.9756 123.788 25.561 108.636 31.0244C101.439 33.561 95.7575 35.3171 95.7575 34.9269C95.7575 33.561 108.636 28.0976 115.644 26.3415C124.735 24 146.705 24.1951 154.848 26.7317ZM154.47 34.1464C163.182 38.6341 165.834 43.122 165.643 52.0975L165.455 58.5366L164.129 51.7074C163.371 47.8049 162.045 43.7073 161.288 42.3415C159.015 38.439 148.598 33.561 136.477 31.0244L125.114 28.4878L136.098 29.4634C142.159 29.8537 150.492 32 154.47 34.1464ZM145 37.6586C150.682 40.5854 155.606 44.2927 156.174 45.8537C156.553 47.4146 154.47 46.4391 150.871 43.317C147.652 40.5854 141.591 37.2683 137.803 36.2927C134.015 35.3171 127.007 33.7561 122.273 32.5854L113.75 30.439L124.167 31.4147C129.848 32 139.318 34.7318 145 37.6586ZM136.856 39.0244C144.621 42.3415 150.682 47.4146 150.682 50.1464C150.682 51.3171 148.03 49.7561 145 47.0245C133.257 37.0732 124.924 36.2927 94.8106 43.122C86.2879 45.0731 90.8334 41.3659 100.114 38.8293C111.856 35.5122 129.091 35.7073 136.856 39.0244ZM129.659 42.1463C139.697 45.8537 133.636 47.6098 120.379 44.8781C109.205 42.7317 108.636 42.3415 114.697 41.561C118.295 40.9756 121.894 40.3902 122.462 40.3902C123.03 40.1951 126.439 40.9756 129.659 42.1463ZM129.091 54.439C136.477 56 147.273 59.1219 153.144 61.4634C164.507 65.9512 164.318 65.561 166.97 85.2683C167.916 92.2927 167.348 95.8049 164.697 100.488C161.098 106.537 161.098 106.537 166.78 117.268C171.516 126.439 172.084 128.195 169.621 129.756C165.643 132.293 163.939 132.098 163.939 129.171C163.939 127.415 163.371 127.61 162.234 129.561C160.152 132.878 156.364 130.732 156.364 126.244C156.364 123.707 155.795 123.707 154.091 125.463C152.197 127.415 152.197 128.39 154.28 129.561C157.121 131.512 155.795 132.488 148.409 134.439C145.568 135.024 141.78 137.756 140.076 140.488L137.045 145.366L127.386 137.171C116.212 127.415 111.098 116.878 110.909 103.22C110.909 95.0245 111.856 91.9024 116.591 85.8537C120.568 80.5854 122.273 76.2928 122.273 71.2195C122.273 58.7318 118.485 56.1951 94.8106 52.8781L73.9772 49.9513L94.8106 50.7317C106.364 51.122 121.705 52.8781 129.091 54.439ZM95.1893 58.5366C101.629 60.0976 108.636 62.244 110.72 63.4147C115.455 65.9512 115.833 74.3414 111.856 79.805C109.015 83.5122 108.826 83.5122 100.682 79.4147C96.1363 77.0732 91.0227 75.122 89.3182 75.122C84.7727 75.122 74.9243 85.6586 74.9243 90.5366C74.9243 92.683 74.1666 94.8292 73.2197 95.4146C70.1893 97.3659 68.6743 73.9513 71.1363 63.2195C73.4091 53.8536 73.7879 53.4635 78.5227 54.6342C81.1743 55.4147 88.75 57.1708 95.1893 58.5366ZM129.47 147.122C132.5 148.878 133.636 151.415 134.015 159.415C134.583 168.585 135.152 169.756 141.023 173.073C147.083 176.585 147.273 176.585 146.136 173.268C142.727 164.488 142.917 159.219 146.705 151.415C150.114 144.781 151.629 143.415 156.364 143.415C160.152 143.415 162.045 144.39 162.045 146.341C162.045 147.902 160.341 149.268 158.257 149.268C149.735 149.268 144.242 161.561 148.22 171.708C149.167 174.439 149.924 173.659 151.439 168.781C152.576 165.073 154.659 161.951 155.985 161.366C159.773 160.195 158.826 171.902 154.28 180.683C150.871 187.902 149.924 188.487 145.379 187.317C142.538 186.731 138.939 186.146 137.235 186.146C132.689 186.146 126.629 178.732 123.409 169.756C120.947 162.537 120.568 162.342 120.568 167.414C120.379 172.293 120 172.488 116.591 170.732C114.507 169.561 112.803 167.414 112.803 165.854C112.803 164.293 111.856 162.927 110.72 162.927C109.205 162.927 108.826 159.024 109.394 151.22C109.773 144.781 109.394 139.317 108.447 138.927C107.5 138.732 107.311 136.39 108.068 134.049C109.205 129.756 109.583 129.756 117.348 137.171C121.894 141.463 127.386 145.951 129.47 147.122ZM141.97 152.78C140.076 156.878 139.507 161.366 140.265 165.463C141.212 170.146 141.023 170.926 139.507 168.781C138.371 167.22 137.424 163.902 137.424 161.366C137.424 156.683 142.727 144.39 144.242 145.756C144.621 146.341 143.674 149.463 141.97 152.78Z"/>
</mask>
<path d="M119.432 21.6586C103.712 25.561 97.462 27.5122 89.697 31.6098C79.6591 36.683 76.25 37.8125 74.375 39.6875C72.5 41.5625 71.1889 41.1684 70.5681 40.9756C69.9474 40.7828 71.5625 36.7636 71.5625 35.9375C71.5625 35.1115 71.5625 33.125 71.5625 33.125C71.5625 33.125 71.5625 32.1875 68.75 36.875C65.9375 41.5625 65.4545 40.1951 65.6439 47.6098C66.0227 52.4878 65.0757 60.4879 63.75 65.3659C60.9091 75.7074 62.0454 90.3415 67.3484 108.293C72.0834 124.488 72.0834 136.781 67.3484 149.659C65.2652 155.122 63.9393 160 64.3182 160.39C64.5075 160.781 67.1591 156.683 69.8106 151.61C76.8182 138.342 80.7954 121.561 80.7954 104.39C80.9848 88.7805 82.5 85.0732 88.9393 84.683C92.5379 84.4879 92.3484 84.2927 88.1818 82.9269L83.447 81.3658L88.1818 81.1708C93.6743 80.9757 100.492 85.2683 103.333 90.7317C104.659 93.2684 104.28 101.659 102.197 118.634C99.7348 138.537 99.7348 144.39 101.629 151.415C102.955 156.098 104.091 161.561 104.28 163.512C104.47 165.268 106.553 169.366 109.205 172.293L113.561 177.561L108.258 172.293C105.227 169.366 102.576 165.073 102.197 162.537C102.007 160 101.629 157.073 101.629 156.098C101.439 154.927 100.682 155.512 99.5454 157.073C97.2727 160.976 104.28 173.659 112.803 180.488C122.273 188.098 129.28 191.414 144.811 195.902L158.257 199.805V194.537C158.447 191.61 159.962 185.757 162.045 181.463C165.834 173.268 166.97 158.049 164.129 153.366C162.993 151.415 163.75 148.878 166.212 145.171C168.484 142.049 169.811 138.146 169.053 135.805C168.484 133.073 169.053 131.707 170.757 131.707C175.682 131.707 175.493 126.829 170.757 117.854C165.075 107.903 164.697 103.805 168.675 100.488C171.705 97.7561 171.325 88.3902 167.727 73.3659C166.212 67.9024 166.78 65.7562 170.757 60.4879C180.607 47.0245 177.955 32 164.507 25.1708C157.5 21.8537 128.523 19.5122 119.432 21.6586ZM154.848 26.7317C166.402 30.2439 171.516 36.2927 171.325 46.2439L170.947 54.6342L169.811 46.4391C168.107 36.0976 165.643 33.1708 155.038 29.4634C142.159 24.9756 123.788 25.561 108.636 31.0244C101.439 33.561 95.7575 35.3171 95.7575 34.9269C95.7575 33.561 108.636 28.0976 115.644 26.3415C124.735 24 146.705 24.1951 154.848 26.7317ZM154.47 34.1464C163.182 38.6341 165.834 43.122 165.643 52.0975L165.455 58.5366L164.129 51.7074C163.371 47.8049 162.045 43.7073 161.288 42.3415C159.015 38.439 148.598 33.561 136.477 31.0244L125.114 28.4878L136.098 29.4634C142.159 29.8537 150.492 32 154.47 34.1464ZM145 37.6586C150.682 40.5854 155.606 44.2927 156.174 45.8537C156.553 47.4146 154.47 46.4391 150.871 43.317C147.652 40.5854 141.591 37.2683 137.803 36.2927C134.015 35.3171 127.007 33.7561 122.273 32.5854L113.75 30.439L124.167 31.4147C129.848 32 139.318 34.7318 145 37.6586ZM136.856 39.0244C144.621 42.3415 150.682 47.4146 150.682 50.1464C150.682 51.3171 148.03 49.7561 145 47.0245C133.257 37.0732 124.924 36.2927 94.8106 43.122C86.2879 45.0731 90.8334 41.3659 100.114 38.8293C111.856 35.5122 129.091 35.7073 136.856 39.0244ZM129.659 42.1463C139.697 45.8537 133.636 47.6098 120.379 44.8781C109.205 42.7317 108.636 42.3415 114.697 41.561C118.295 40.9756 121.894 40.3902 122.462 40.3902C123.03 40.1951 126.439 40.9756 129.659 42.1463ZM129.091 54.439C136.477 56 147.273 59.1219 153.144 61.4634C164.507 65.9512 164.318 65.561 166.97 85.2683C167.916 92.2927 167.348 95.8049 164.697 100.488C161.098 106.537 161.098 106.537 166.78 117.268C171.516 126.439 172.084 128.195 169.621 129.756C165.643 132.293 163.939 132.098 163.939 129.171C163.939 127.415 163.371 127.61 162.234 129.561C160.152 132.878 156.364 130.732 156.364 126.244C156.364 123.707 155.795 123.707 154.091 125.463C152.197 127.415 152.197 128.39 154.28 129.561C157.121 131.512 155.795 132.488 148.409 134.439C145.568 135.024 141.78 137.756 140.076 140.488L137.045 145.366L127.386 137.171C116.212 127.415 111.098 116.878 110.909 103.22C110.909 95.0245 111.856 91.9024 116.591 85.8537C120.568 80.5854 122.273 76.2928 122.273 71.2195C122.273 58.7318 118.485 56.1951 94.8106 52.8781L73.9772 49.9513L94.8106 50.7317C106.364 51.122 121.705 52.8781 129.091 54.439ZM95.1893 58.5366C101.629 60.0976 108.636 62.244 110.72 63.4147C115.455 65.9512 115.833 74.3414 111.856 79.805C109.015 83.5122 108.826 83.5122 100.682 79.4147C96.1363 77.0732 91.0227 75.122 89.3182 75.122C84.7727 75.122 74.9243 85.6586 74.9243 90.5366C74.9243 92.683 74.1666 94.8292 73.2197 95.4146C70.1893 97.3659 68.6743 73.9513 71.1363 63.2195C73.4091 53.8536 73.7879 53.4635 78.5227 54.6342C81.1743 55.4147 88.75 57.1708 95.1893 58.5366ZM129.47 147.122C132.5 148.878 133.636 151.415 134.015 159.415C134.583 168.585 135.152 169.756 141.023 173.073C147.083 176.585 147.273 176.585 146.136 173.268C142.727 164.488 142.917 159.219 146.705 151.415C150.114 144.781 151.629 143.415 156.364 143.415C160.152 143.415 162.045 144.39 162.045 146.341C162.045 147.902 160.341 149.268 158.257 149.268C149.735 149.268 144.242 161.561 148.22 171.708C149.167 174.439 149.924 173.659 151.439 168.781C152.576 165.073 154.659 161.951 155.985 161.366C159.773 160.195 158.826 171.902 154.28 180.683C150.871 187.902 149.924 188.487 145.379 187.317C142.538 186.731 138.939 186.146 137.235 186.146C132.689 186.146 126.629 178.732 123.409 169.756C120.947 162.537 120.568 162.342 120.568 167.414C120.379 172.293 120 172.488 116.591 170.732C114.507 169.561 112.803 167.414 112.803 165.854C112.803 164.293 111.856 162.927 110.72 162.927C109.205 162.927 108.826 159.024 109.394 151.22C109.773 144.781 109.394 139.317 108.447 138.927C107.5 138.732 107.311 136.39 108.068 134.049C109.205 129.756 109.583 129.756 117.348 137.171C121.894 141.463 127.386 145.951 129.47 147.122ZM141.97 152.78C140.076 156.878 139.507 161.366 140.265 165.463C141.212 170.146 141.023 170.926 139.507 168.781C138.371 167.22 137.424 163.902 137.424 161.366C137.424 156.683 142.727 144.39 144.242 145.756C144.621 146.341 143.674 149.463 141.97 152.78Z" fill="white" stroke="white" stroke-width="10" mask="url(#path-2-inside-1_105_79)"/>
<path d="M159.246 95.4155C159.246 95.4155 159.244 95.4135 159.24 95.4096C159.244 95.4135 159.246 95.4155 159.246 95.4155ZM159.402 92.9947C159.402 92.9947 159.401 92.9952 159.399 92.9963C159.401 92.9952 159.402 92.9947 159.402 92.9947Z" fill="white" stroke="white" stroke-width="5"/>
<path d="M148.062 101.652C147.243 101.53 146.216 101.306 144.928 100.967C145.455 100.942 146.023 100.959 146.598 101.022C147.731 101.146 148.687 101.426 149.278 101.737C149.293 101.745 149.307 101.752 149.321 101.76C149.04 101.763 148.633 101.738 148.062 101.652ZM149.675 102.002C149.673 102.003 149.66 101.991 149.642 101.968C149.668 101.99 149.677 102.002 149.675 102.002ZM142.572 99.9433C142.573 99.9433 142.576 99.9465 142.581 99.953C142.575 99.9466 142.572 99.9433 142.572 99.9433Z" fill="white" stroke="white" stroke-width="5"/>
<path d="M128.779 169.658C129.506 170.802 130.237 172.139 130.883 173.542C130.493 172.881 130.106 172.195 129.729 171.497C129.394 170.876 129.076 170.26 128.779 169.658ZM124.931 166.181C124.932 166.181 124.933 166.181 124.934 166.181C124.906 166.182 124.903 166.179 124.931 166.181Z" fill="white" stroke="white" stroke-width="5"/>
<mask id="path-6-inside-2_105_79" fill="white">
<path d="M185.53 49.7559C202.575 74.3413 208.068 104.78 200.114 131.317C195.948 145.756 184.016 166.049 175.871 172.682C173.22 174.829 171.325 177.171 171.894 177.561C172.462 178.147 177.386 173.658 182.689 167.61C202.007 145.756 210.341 119.024 205.984 92.8779C203.334 76.4877 196.325 60.4877 187.234 50.3413L180.796 42.9268L185.53 49.7559Z"/>
</mask>
<path d="M185.53 49.7559C202.575 74.3413 208.068 104.78 200.114 131.317C195.948 145.756 184.016 166.049 175.871 172.682C173.22 174.829 171.325 177.171 171.894 177.561C172.462 178.147 177.386 173.658 182.689 167.61C202.007 145.756 210.341 119.024 205.984 92.8779C203.334 76.4877 196.325 60.4877 187.234 50.3413L180.796 42.9268L185.53 49.7559Z" fill="white"/>
<path d="M185.53 49.7559L181.421 52.6046L181.421 52.6048L185.53 49.7559ZM200.114 131.317L195.324 129.881L195.317 129.906L195.31 129.931L200.114 131.317ZM175.871 172.682L179.018 176.568L179.028 176.559L175.871 172.682ZM171.894 177.561L175.481 174.079L175.136 173.723L174.727 173.441L171.894 177.561ZM182.689 167.61L178.943 164.299L178.936 164.306L178.929 164.314L182.689 167.61ZM205.984 92.8779L201.049 93.6761L201.051 93.6879L201.052 93.6997L205.984 92.8779ZM187.234 50.3413L183.459 53.6197L183.485 53.649L183.511 53.6778L187.234 50.3413ZM180.796 42.9268L184.571 39.6483L176.686 45.7754L180.796 42.9268ZM181.421 52.6048C197.685 76.0632 202.801 104.94 195.324 129.881L204.903 132.753C213.336 104.621 207.466 72.6194 189.639 46.9071L181.421 52.6048ZM195.31 129.931C193.377 136.63 189.557 144.922 185.172 152.396C180.719 159.987 176.066 166.075 172.713 168.805L179.028 176.559C183.82 172.656 189.206 165.281 193.797 157.457C198.455 149.517 202.684 140.443 204.918 132.703L195.31 129.931ZM172.724 168.797C171.197 170.034 169.796 171.396 168.796 172.626C168.333 173.195 167.749 173.985 167.346 174.877C167.16 175.288 166.821 176.13 166.794 177.204C166.763 178.445 167.194 180.398 169.06 181.681L174.727 173.441C175.485 173.963 176.065 174.685 176.415 175.505C176.744 176.278 176.803 176.977 176.791 177.451C176.77 178.314 176.506 178.892 176.459 178.995C176.334 179.271 176.284 179.268 176.554 178.935C177.022 178.36 177.895 177.477 179.018 176.568L172.724 168.797ZM168.306 181.044C169.649 182.428 171.286 182.64 172.21 182.61C173.089 182.582 173.78 182.342 174.135 182.202C174.875 181.911 175.51 181.5 175.923 181.213C176.826 180.587 177.857 179.712 178.898 178.756C181.028 176.8 183.711 174.029 186.449 170.906L178.929 164.314C176.364 167.24 173.934 169.737 172.134 171.391C171.21 172.239 170.571 172.755 170.225 172.995C170.015 173.141 170.13 173.032 170.471 172.898C170.626 172.836 171.148 172.639 171.89 172.615C172.677 172.59 174.209 172.768 175.481 174.079L168.306 181.044ZM186.435 170.922C206.637 148.068 215.548 119.851 210.916 92.0561L201.052 93.6997C205.134 118.198 197.377 143.444 178.943 164.299L186.435 170.922ZM210.92 92.0797C208.153 74.968 200.824 58.0154 190.958 47.0048L183.511 53.6778C191.827 62.9601 198.515 78.0074 201.049 93.6761L210.92 92.0797ZM191.01 47.0629L184.571 39.6483L177.02 46.2052L183.459 53.6197L191.01 47.0629ZM176.686 45.7754L181.421 52.6046L189.639 46.9072L184.905 40.0781L176.686 45.7754Z" fill="white" mask="url(#path-6-inside-2_105_79)"/>
<mask id="path-8-inside-3_105_79" fill="white">
<path d="M91.9698 97.3659C88.75 101.659 90.4546 109.073 94.8107 110.049C97.8409 110.634 98.0304 110.244 96.1364 107.707C94.6213 105.951 94.2425 102.634 95 99.7074C96.3259 94.0488 95.3788 93.2683 91.9698 97.3659Z"/>
</mask>
<path d="M91.9698 97.3659C88.75 101.659 90.4546 109.073 94.8107 110.049C97.8409 110.634 98.0304 110.244 96.1364 107.707C94.6213 105.951 94.2425 102.634 95 99.7074C96.3259 94.0488 95.3788 93.2683 91.9698 97.3659Z" fill="white"/>
<path d="M91.9698 97.3659L88.1261 94.168L88.0455 94.2649L87.9699 94.3657L91.9698 97.3659ZM94.8107 110.049L93.718 114.928L93.79 114.944L93.8623 114.958L94.8107 110.049ZM96.1364 107.707L100.143 104.716L100.037 104.575L99.9222 104.441L96.1364 107.707ZM95 99.7074L99.8405 100.96L99.855 100.904L99.8682 100.848L95 99.7074ZM87.9699 94.3657C85.3074 97.9154 84.8502 102.419 85.6724 106.054C86.4591 109.532 88.8837 113.845 93.718 114.928L95.9033 105.17C96.3815 105.277 95.7758 105.394 95.4261 103.848C95.1119 102.459 95.4123 101.109 95.9696 100.366L87.9699 94.3657ZM93.8623 114.958C94.6333 115.107 95.5934 115.273 96.4889 115.286C96.9298 115.293 97.6919 115.272 98.5375 115.011C99.438 114.733 100.82 114.047 101.693 112.474C102.532 110.96 102.408 109.499 102.245 108.708C102.083 107.919 101.782 107.285 101.583 106.905C101.181 106.137 100.624 105.361 100.143 104.716L92.13 110.699C92.3406 110.981 92.4933 111.195 92.6022 111.356C92.7172 111.527 92.7428 111.579 92.7253 111.546C92.7142 111.524 92.6759 111.45 92.6289 111.331C92.5836 111.217 92.5093 111.009 92.4511 110.726C92.3444 110.208 92.2025 108.967 92.9477 107.623C93.7254 106.222 94.9359 105.657 95.5849 105.457C96.179 105.273 96.6095 105.287 96.6362 105.287C96.703 105.288 96.5032 105.283 95.759 105.139L93.8623 114.958ZM99.9222 104.441C100.002 104.534 99.7809 104.298 99.6718 103.483C99.5707 102.728 99.6185 101.818 99.8405 100.96L90.1595 98.4545C89.624 100.524 89.4824 102.735 89.7602 104.81C90.0299 106.824 90.7553 109.124 92.3506 110.973L99.9222 104.441ZM99.8682 100.848C100.221 99.3417 100.489 97.8967 100.558 96.6535C100.591 96.0434 100.593 95.2433 100.423 94.4061C100.273 93.6659 99.8332 92.111 98.3477 90.945C96.6101 89.5811 94.6637 89.6578 93.4448 89.9946C92.3614 90.2939 91.5352 90.8534 91.0491 91.2215C90.0307 91.9928 89.0367 93.0736 88.1261 94.168L95.8134 100.564C96.1828 100.12 96.483 99.7853 96.7191 99.5424C96.8357 99.4224 96.927 99.3346 96.9943 99.2734C97.063 99.2109 97.093 99.1884 97.0867 99.1932C97.0837 99.1954 97.0122 99.2501 96.8775 99.3248C96.7499 99.3957 96.4871 99.5287 96.1078 99.6335C95.2861 99.8605 93.6623 99.9799 92.1733 98.8112C90.9363 97.8402 90.6711 96.633 90.6224 96.3927C90.5541 96.0555 90.5836 95.9079 90.5729 96.1027C90.5527 96.4692 90.4418 97.2438 90.1319 98.5667L99.8682 100.848Z" fill="white" mask="url(#path-8-inside-3_105_79)"/>
<mask id="path-10-inside-4_105_79" fill="white">
<path d="M82.5 108.683C82.1212 115.317 91.4016 124.683 95.5682 121.951C97.2728 120.976 96.5152 120.195 93.1061 119.22C90.4546 118.634 87.0455 115.512 85.5303 112.585C83.8257 109.659 82.6894 107.903 82.5 108.683Z"/>
</mask>
<path d="M82.5 108.683C82.1212 115.317 91.4016 124.683 95.5682 121.951C97.2728 120.976 96.5152 120.195 93.1061 119.22C90.4546 118.634 87.0455 115.512 85.5303 112.585C83.8257 109.659 82.6894 107.903 82.5 108.683Z" fill="white"/>
<path d="M82.5 108.683L77.641 107.504L77.534 107.945L77.5082 108.398L82.5 108.683ZM95.5682 121.951L93.0844 117.612L92.9532 117.687L92.8268 117.77L95.5682 121.951ZM93.1061 119.22L94.4819 114.413L94.3341 114.37L94.184 114.337L93.1061 119.22ZM85.5303 112.585L89.9706 110.287L89.9135 110.176L89.851 110.069L85.5303 112.585ZM77.5082 108.398C77.3471 111.219 78.2074 113.936 79.3217 116.17C80.46 118.453 82.0373 120.586 83.7717 122.342C85.4764 124.069 87.5568 125.658 89.8101 126.586C91.972 127.477 95.285 128.116 98.3096 126.133L92.8268 117.77C93.7681 117.153 94.3586 117.645 93.6203 117.341C92.9735 117.074 91.9763 116.419 90.8875 115.316C89.8283 114.244 88.8961 112.962 88.2706 111.708C87.6212 110.405 87.4636 109.464 87.4919 108.968L77.5082 108.398ZM98.052 126.291C98.6226 125.964 100.015 125.127 100.833 123.527C101.327 122.563 101.606 121.326 101.349 119.979C101.106 118.705 100.47 117.785 99.9405 117.207C98.9947 116.175 97.8152 115.617 97.1467 115.329C96.3431 114.983 95.4272 114.683 94.4819 114.413L91.7304 124.027C92.4897 124.244 92.9468 124.408 93.1908 124.513C93.5699 124.676 93.1125 124.557 92.5691 123.964C92.2407 123.606 91.7264 122.904 91.5257 121.852C91.3109 120.726 91.5528 119.712 91.9307 118.973C92.2669 118.316 92.6727 117.939 92.8336 117.801C93.0121 117.648 93.1229 117.59 93.0844 117.612L98.052 126.291ZM94.184 114.337C94.1937 114.339 94.1393 114.328 94.0191 114.277C93.9008 114.227 93.743 114.15 93.5495 114.037C93.1566 113.806 92.6956 113.471 92.2123 113.042C91.2104 112.152 90.3972 111.111 89.9706 110.287L81.09 114.884C82.1786 116.987 83.8275 118.97 85.5719 120.519C87.2418 122.002 89.5159 123.547 92.0283 124.102L94.184 114.337ZM89.851 110.069C89.0205 108.643 88.1795 107.239 87.4732 106.279C87.2509 105.977 86.5397 104.989 85.4779 104.321C85.0176 104.031 83.1151 102.924 80.7618 103.863C78.3859 104.81 77.7753 106.95 77.641 107.504L87.3591 109.862C87.2721 110.22 86.7385 112.244 84.4676 113.151C82.2193 114.048 80.45 112.972 80.1495 112.783C79.6658 112.478 79.4032 112.178 79.3948 112.169C79.3435 112.112 79.3494 112.112 79.4207 112.209C79.7561 112.664 80.3355 113.601 81.2096 115.102L89.851 110.069Z" fill="white" mask="url(#path-10-inside-4_105_79)"/>
<mask id="path-12-inside-5_105_79" fill="white">
<path d="M46.1764 168.197C28.4266 144.146 22.0551 113.889 29.2376 87.12C32.9843 72.5593 44.3231 51.9089 52.2713 45.0274C54.8595 42.8005 56.6848 40.4018 56.1055 40.0292C55.5207 39.4616 50.7287 44.0988 45.6031 50.308C26.9264 72.7456 19.3709 99.7216 24.4822 125.722C27.6072 142.024 35.075 157.801 44.4557 167.664L51.1069 174.877L46.1764 168.197Z"/>
</mask>
<path d="M46.1764 168.197C28.4266 144.146 22.0551 113.889 29.2376 87.12C32.9843 72.5593 44.3231 51.9089 52.2713 45.0274C54.8595 42.8005 56.6848 40.4018 56.1055 40.0292C55.5207 39.4616 50.7287 44.0988 45.6031 50.308C26.9264 72.7456 19.3709 99.7216 24.4822 125.722C27.6072 142.024 35.075 157.801 44.4557 167.664L51.1069 174.877L46.1764 168.197Z" fill="white"/>
<path d="M46.1764 168.197L42.1534 171.166L42.1534 171.166L46.1764 168.197ZM29.2376 87.12L34.0668 88.4157L34.0735 88.3909L34.0799 88.366L29.2376 87.12ZM52.2713 45.0274L49.0102 41.2372L49.0044 41.2422L48.9985 41.2473L52.2713 45.0274ZM56.1055 40.0292L52.623 43.6169L52.981 43.9645L53.4007 44.2344L56.1055 40.0292ZM45.6031 50.308L49.446 53.5067L49.4525 53.4989L49.459 53.491L45.6031 50.308ZM24.4822 125.722L29.3928 124.781L29.3905 124.769L29.3883 124.758L24.4822 125.722ZM44.4557 167.664L48.1315 164.275L48.1053 164.246L48.0787 164.218L44.4557 167.664ZM51.1069 174.877L47.4311 178.267L55.1299 171.908L51.1069 174.877ZM50.1994 165.228C33.2657 142.283 27.3155 113.578 34.0668 88.4157L24.4084 85.8243C16.7947 114.201 23.5874 146.009 42.1534 171.166L50.1994 165.228ZM34.0799 88.366C35.8184 81.6097 39.3967 73.2032 43.564 65.5963C47.7954 57.8724 52.27 51.6421 55.5441 48.8074L48.9985 41.2473C44.3244 45.2942 39.1556 52.8299 34.7938 60.7917C30.368 68.8706 26.4035 78.0696 24.3954 85.874L34.0799 88.366ZM55.5323 48.8176C57.0237 47.5344 58.3835 46.1307 59.3472 44.8712C59.7937 44.2877 60.3531 43.4816 60.7298 42.5782C60.903 42.1626 61.218 41.3117 61.2132 40.2373C61.2076 38.9962 60.7193 37.0519 58.8104 35.824L53.4007 44.2344C52.6252 43.7356 52.0218 43.0299 51.6472 42.2189C51.2942 41.4547 51.2154 40.7564 51.2133 40.282C51.2094 39.4187 51.4566 38.8337 51.4998 38.7302C51.6162 38.4509 51.6662 38.4536 51.4052 38.7946C50.954 39.3844 50.1071 40.2935 49.0102 41.2372L55.5323 48.8176ZM59.5881 36.4415C58.2017 35.0957 56.5565 34.9348 55.6343 34.9927C54.7566 35.0478 54.0734 35.3087 53.7237 35.4589C52.9938 35.7724 52.3719 36.2023 51.9671 36.5014C51.0833 37.1545 50.0794 38.0595 49.0661 39.0477C46.9946 41.068 44.393 43.9197 41.7472 47.1249L49.459 53.491C51.9388 50.4871 54.296 47.9156 56.0481 46.2068C56.9466 45.3305 57.5707 44.7946 57.9101 44.5438C58.1169 44.391 58.0053 44.5033 57.6695 44.6475C57.5167 44.7131 57.0015 44.9266 56.2607 44.9731C55.4755 45.0224 53.9362 44.8917 52.623 43.6169L59.5881 36.4415ZM41.7602 47.1092C22.2319 70.5699 14.1424 99.0462 19.5761 126.687L29.3883 124.758C24.5994 100.397 31.6209 74.9213 49.446 53.5067L41.7602 47.1092ZM19.5716 126.664C22.8342 143.683 30.6508 160.405 40.8327 171.11L48.0787 164.218C39.4992 155.198 32.3802 140.365 29.3928 124.781L19.5716 126.664ZM40.7799 171.054L47.4311 178.267L54.7827 171.488L48.1315 164.275L40.7799 171.054ZM55.1299 171.908L50.1994 165.228L42.1534 171.166L47.084 177.847L55.1299 171.908Z" fill="white" mask="url(#path-12-inside-5_105_79)"/>
</g>
<defs>
<clipPath id="clip0_105_79">
<rect width="187.5" height="180" fill="white" transform="translate(20 20)"/>
</clipPath>
</defs>
</svg>
